<svg width="83" height="83" viewBox="0 0 83 83" fill="none" xmlns="http://www.w3.org/2000/svg">
<ellipse cx="9.80783" cy="43.7092" rx="9.80783" ry="43.7092" transform="matrix(0.792063 0.610439 -0.592881 0.80529 59.6641 0)" fill="url(#paint0_linear_189_18)"/>
<ellipse cx="7.00854" cy="30.1231" rx="7.00854" ry="30.1231" transform="matrix(0.792063 0.610439 -0.592887 0.805285 66.7578 23.8438)" fill="url(#paint1_linear_189_18)"/>
<ellipse cx="7.00854" cy="30.1231" rx="7.00854" ry="30.1231" transform="matrix(0.792063 0.610439 -0.592887 0.805285 38.9453 3.77344)" fill="url(#paint2_linear_189_18)"/>
<ellipse cx="5.48902" cy="18.9836" rx="5.48902" ry="18.9836" transform="matrix(0.792063 0.610439 -0.592892 0.805282 73.6641 39.5625)" fill="url(#paint3_linear_189_18)"/>
<ellipse cx="5.48907" cy="18.9834" rx="5.48907" ry="18.9834" transform="matrix(0.792063 0.610439 -0.592887 0.805285 22.5078 5.71875)" fill="url(#paint4_linear_189_18)"/>
<defs>
<linearGradient id="paint0_linear_189_18" x1="19.9721" y1="42.7813" x2="0.427036" y2="44.367" gradientUnits="userSpaceOnUse">
<stop stop-color="#2DE19B"/>
<stop offset="0.5" stop-color="#23AE78"/>
<stop offset="1" stop-color="#197B55"/>
</linearGradient>
<linearGradient id="paint1_linear_189_18" x1="7.00854" y1="0" x2="7.00854" y2="60.2461" gradientUnits="userSpaceOnUse">
<stop stop-color="white"/>
<stop offset="1" stop-color="#999999"/>
</linearGradient>
<linearGradient id="paint2_linear_189_18" x1="7.00854" y1="0" x2="7.00854" y2="60.2461" gradientUnits="userSpaceOnUse">
<stop stop-color="white"/>
<stop offset="1" stop-color="#999999"/>
</linearGradient>
<linearGradient id="paint3_linear_189_18" x1="5.48902" y1="0" x2="5.48902" y2="37.9672" gradientUnits="userSpaceOnUse">
<stop stop-color="#2DE19B"/>
<stop offset="1" stop-color="#197B55"/>
</linearGradient>
<linearGradient id="paint4_linear_189_18" x1="5.48907" y1="0" x2="5.48907" y2="37.9669" gradientUnits="userSpaceOnUse">
<stop stop-color="#2DE19B"/>
<stop offset="1" stop-color="#197B55"/>
</linearGradient>
</defs>
</svg>
