<svg width="368" height="132" viewBox="0 0 368 132" fill="none" xmlns="http://www.w3.org/2000/svg">
<path d="M158.58 117V53.75H168.93V65.825H171.115L168.93 68.24C168.93 63.2567 170.425 59.4233 173.415 56.74C176.405 53.98 180.545 52.6 185.835 52.6C192.198 52.6 197.258 54.555 201.015 58.465C204.772 62.375 206.65 67.7033 206.65 74.45V117H196.3V75.6C196.3 71.0767 195.073 67.6267 192.62 65.25C190.243 62.7967 186.985 61.57 182.845 61.57C178.552 61.57 175.14 62.8733 172.61 65.48C170.157 68.0867 168.93 71.8433 168.93 76.75V117H158.58ZM245.935 118.15C239.265 118.15 234.013 116.463 230.18 113.09C226.347 109.64 224.43 105.002 224.43 99.175C224.43 93.2717 226.347 88.6333 230.18 85.26C234.013 81.8867 239.188 80.2 245.705 80.2H265.255V73.875C265.255 69.965 264.067 66.975 261.69 64.905C259.39 62.7583 256.093 61.685 251.8 61.685C248.043 61.685 244.9 62.49 242.37 64.1C239.84 65.6333 238.383 67.7417 238 70.425H227.65C228.34 64.9817 230.908 60.65 235.355 57.43C239.802 54.21 245.36 52.6 252.03 52.6C259.313 52.6 265.063 54.4783 269.28 58.235C273.497 61.9917 275.605 67.09 275.605 73.53V117H265.485V104.925H263.76L265.485 103.2C265.485 107.8 263.683 111.442 260.08 114.125C256.553 116.808 251.838 118.15 245.935 118.15ZM248.465 109.985C253.372 109.985 257.397 108.758 260.54 106.305C263.683 103.852 265.255 100.708 265.255 96.875V87.905H245.935C242.485 87.905 239.763 88.8633 237.77 90.78C235.777 92.6967 234.78 95.3033 234.78 98.6C234.78 102.127 235.968 104.925 238.345 106.995C240.798 108.988 244.172 109.985 248.465 109.985ZM298.675 117V53.75H308.795V65.825H311.21L307.875 73.3C307.875 66.4767 309.332 61.34 312.245 57.89C315.235 54.3633 319.643 52.6 325.47 52.6C332.14 52.6 337.43 54.7083 341.34 58.925C345.327 63.065 347.32 68.7 347.32 75.83V79.625H336.97V76.75C336.97 71.7667 335.743 67.9717 333.29 65.365C330.913 62.6817 327.502 61.34 323.055 61.34C318.685 61.34 315.235 62.6817 312.705 65.365C310.252 68.0483 309.025 71.8433 309.025 76.75V117H298.675Z" fill="white"/>
<path d="M32.545 120.92C28.2517 120.92 24.495 120.268 21.275 118.965C18.1317 117.585 15.6017 115.668 13.685 113.215C11.845 110.762 10.7333 107.848 10.35 104.475H20.7C21.16 106.698 22.3867 108.462 24.38 109.765C26.45 111.068 29.1717 111.72 32.545 111.72H37.375C41.4383 111.72 44.4667 110.915 46.46 109.305C48.4533 107.618 49.45 105.395 49.45 102.635C49.45 99.9517 48.53 97.8433 46.69 96.31C44.9267 94.7 42.2817 93.6267 38.755 93.09L30.245 91.71C24.035 90.6367 19.3967 88.72 16.33 85.96C13.34 83.1233 11.845 79.0217 11.845 73.655C11.845 67.9817 13.6467 63.6117 17.25 60.545C20.8533 57.4017 26.2583 55.83 33.465 55.83H37.835C43.8917 55.83 48.76 57.2483 52.44 60.085C56.12 62.9217 58.3433 66.755 59.11 71.585H48.76C48.3 69.5917 47.15 68.02 45.31 66.87C43.47 65.6433 40.9783 65.03 37.835 65.03H33.465C29.555 65.03 26.68 65.7583 24.84 67.215C23.0767 68.6717 22.195 70.8567 22.195 73.77C22.195 76.3767 22.9617 78.2933 24.495 79.52C26.0283 80.7467 28.4433 81.6283 31.74 82.165L40.25 83.545C47.0733 84.6183 52.0183 86.6117 55.085 89.525C58.2283 92.4383 59.8 96.655 59.8 102.175C59.8 108.002 57.9217 112.602 54.165 115.975C50.485 119.272 44.8883 120.92 37.375 120.92H32.545Z" fill="white"/>
<ellipse cx="9.80783" cy="43.7092" rx="9.80783" ry="43.7092" transform="matrix(0.792063 0.610439 -0.592881 0.80529 125.672 43)" fill="url(#paint0_linear_190_9)"/>
<ellipse cx="7.00854" cy="30.1231" rx="7.00854" ry="30.1231" transform="matrix(0.792063 0.610439 -0.592887 0.805285 132.766 66.8438)" fill="url(#paint1_linear_190_9)"/>
<ellipse cx="7.00854" cy="30.1231" rx="7.00854" ry="30.1231" transform="matrix(0.792063 0.610439 -0.592887 0.805285 104.953 46.7734)" fill="url(#paint2_linear_190_9)"/>
<ellipse cx="5.48902" cy="18.9836" rx="5.48902" ry="18.9836" transform="matrix(0.792063 0.610439 -0.592892 0.805282 139.672 82.5625)" fill="url(#paint3_linear_190_9)"/>
<ellipse cx="5.48907" cy="18.9834" rx="5.48907" ry="18.9834" transform="matrix(0.792063 0.610439 -0.592887 0.805285 88.5156 48.7188)" fill="url(#paint4_linear_190_9)"/>
<defs>
<linearGradient id="paint0_linear_190_9" x1="19.9721" y1="42.7813" x2="0.427036" y2="44.367" gradientUnits="userSpaceOnUse">
<stop stop-color="#2DE19B"/>
<stop offset="0.5" stop-color="#23AE78"/>
<stop offset="1" stop-color="#197B55"/>
</linearGradient>
<linearGradient id="paint1_linear_190_9" x1="7.00854" y1="0" x2="7.00854" y2="60.2461" gradientUnits="userSpaceOnUse">
<stop stop-color="white"/>
<stop offset="1" stop-color="#999999"/>
</linearGradient>
<linearGradient id="paint2_linear_190_9" x1="7.00854" y1="0" x2="7.00854" y2="60.2461" gradientUnits="userSpaceOnUse">
<stop stop-color="white"/>
<stop offset="1" stop-color="#999999"/>
</linearGradient>
<linearGradient id="paint3_linear_190_9" x1="5.48902" y1="0" x2="5.48902" y2="37.9672" gradientUnits="userSpaceOnUse">
<stop stop-color="#2DE19B"/>
<stop offset="1" stop-color="#197B55"/>
</linearGradient>
<linearGradient id="paint4_linear_190_9" x1="5.48907" y1="0" x2="5.48907" y2="37.9669" gradientUnits="userSpaceOnUse">
<stop stop-color="#2DE19B"/>
<stop offset="1" stop-color="#197B55"/>
</linearGradient>
</defs>
</svg>
